<svg width="16" height="18" viewBox="0 0 16 18" fill="none" xmlns="http://www.w3.org/2000/svg">
<path d="M12.714 12.8807C11.9335 13.6612 10.3012 15.2935 9.17808 16.4166C8.52721 17.0675 7.47298 17.0678 6.82211 16.4169C5.71854 15.3134 4.11791 13.7127 3.28587 12.8807C0.682378 10.2772 0.682378 6.05612 3.28587 3.45262C5.88937 0.849126 10.1105 0.849126 12.714 3.45262C15.3175 6.05612 15.3175 10.2772 12.714 12.8807Z" stroke="#ACADB9" stroke-width="1.25" stroke-linecap="round" stroke-linejoin="round"/>
<path d="M10.4999 8.16667C10.4999 9.54738 9.38063 10.6667 7.99992 10.6667C6.61921 10.6667 5.49992 9.54738 5.49992 8.16667C5.49992 6.78595 6.61921 5.66667 7.99992 5.66667C9.38063 5.66667 10.4999 6.78595 10.4999 8.16667Z" stroke="#ACADB9" stroke-width="1.25" stroke-linecap="round" stroke-linejoin="round"/>
</svg>
